<svg width="192" height="171" viewBox="0 0 192 171" fill="none" xmlns="http://www.w3.org/2000/svg">
<path d="M191.997 109.27C191.997 144.783 139.81 171 76.0256 171C40.4427 171 0 115.847 0 80.3339C0 44.8208 62.4956 -6.09905 101.153 0.599217C193.93 16.6748 191.997 73.7568 191.997 109.27Z" fill="#F6F6F6"/>
<rect x="41" y="31" width="110" height="110" rx="55" fill="#D9D9D9"/>
<path fill-rule="evenodd" clip-rule="evenodd" d="M96 67.2502C93.5377 67.2502 91.0995 67.7351 88.8247 68.6774C86.5498 69.6197 84.4828 71.0008 82.7417 72.7419C81.0006 74.483 79.6195 76.55 78.6773 78.8248C77.735 81.0997 77.25 83.5379 77.25 86.0002C77.25 88.4624 77.735 90.9006 78.6773 93.1755C79.6195 95.4503 81.0006 97.5173 82.7417 99.2584C84.4828 101 86.5498 102.381 88.8247 103.323C91.0995 104.265 93.5377 104.75 96 104.75C100.973 104.75 105.742 102.775 109.258 99.2584C112.775 95.7421 114.75 90.973 114.75 86.0002C114.75 81.0274 112.775 76.2582 109.258 72.7419C105.742 69.2256 100.973 67.2502 96 67.2502ZM73.0833 86.0002C73.0833 73.3439 83.3437 63.0835 96 63.0835C108.656 63.0835 118.917 73.3439 118.917 86.0002C118.917 98.6564 108.656 108.917 96 108.917C83.3437 108.917 73.0833 98.6564 73.0833 86.0002Z" fill="#0ED789"/>
<path fill-rule="evenodd" clip-rule="evenodd" d="M107.683 79.75L91.5875 95.8459L83.5 86.1938L86.6479 83.4646L91.8063 89.7355L104.737 76.8042L107.683 79.75Z" fill="#0ED789"/>
</svg>
