<svg width="192" height="171" viewBox="0 0 192 171" fill="none" xmlns="http://www.w3.org/2000/svg">
<path d="M191.997 109.27C191.997 144.783 139.81 171 76.0256 171C40.4427 171 0 115.847 0 80.3339C0 44.8208 62.4956 -6.09905 101.153 0.599217C193.93 16.6748 191.997 73.7568 191.997 109.27Z" fill="#F6F6F6"/>
<rect x="41" y="31" width="110" height="110" rx="55" fill="#D9D9D9"/>
<path d="M97.875 106.729C97.5625 106.798 97.25 106.833 96.9375 106.833H96C93.1181 106.833 90.4097 106.287 87.875 105.194C85.3403 104.101 83.1354 102.616 81.2604 100.739C79.3854 98.863 77.9014 96.6582 76.8084 94.1248C75.7153 91.5915 75.1681 88.8832 75.1667 85.9998C75.1653 83.1165 75.7125 80.4082 76.8084 77.8748C77.9042 75.3415 79.3882 73.1367 81.2604 71.2603C83.1327 69.3839 85.3375 67.8998 87.875 66.8082C90.4125 65.7165 93.1209 65.1693 96 65.1665C98.8792 65.1637 101.588 65.711 104.125 66.8082C106.663 67.9054 108.867 69.3894 110.74 71.2603C112.612 73.1311 114.097 75.336 115.194 77.8748C116.291 80.4137 116.838 83.1221 116.833 85.9998V86.9373C116.833 87.2498 116.799 87.5623 116.729 87.8748L112.667 86.6248V85.9998C112.667 81.3471 111.052 77.4061 107.823 74.1769C104.594 70.9478 100.653 69.3332 96 69.3332C91.3472 69.3332 87.4063 70.9478 84.1771 74.1769C80.9479 77.4061 79.3334 81.3471 79.3334 85.9998C79.3334 90.6526 80.9479 94.5936 84.1771 97.8228C87.4063 101.052 91.3472 102.667 96 102.667H96.625L97.875 106.729ZM113.76 107.875L104.854 98.9686L102.25 106.833L96 85.9998L116.833 92.2498L108.969 94.854L117.875 103.76L113.76 107.875Z" fill="#0ED789"/>
</svg>
