<svg width="192" height="171" viewBox="0 0 192 171" fill="none" xmlns="http://www.w3.org/2000/svg">
<path d="M191.997 109.27C191.997 144.783 139.81 171 76.0256 171C40.4427 171 0 115.847 0 80.3339C0 44.8208 62.4956 -6.09905 101.153 0.599217C193.93 16.6748 191.997 73.7568 191.997 109.27Z" fill="#F6F6F6"/>
<rect x="41" y="31" width="110" height="110" rx="55" fill="#D9D9D9"/>
<path d="M96 90.1665C96.412 90.1665 96.8148 90.0443 97.1574 89.8154C97.5 89.5865 97.7671 89.2611 97.9247 88.8804C98.0824 88.4998 98.1237 88.0809 98.0433 87.6767C97.9629 87.2726 97.7645 86.9014 97.4731 86.61C97.1818 86.3187 96.8106 86.1203 96.4064 86.0399C96.0023 85.9595 95.5834 86.0007 95.2027 86.1584C94.8221 86.3161 94.4967 86.5831 94.2678 86.9257C94.0388 87.2683 93.9167 87.6711 93.9167 88.0832C93.9167 88.6357 94.1362 89.1656 94.5269 89.5563C94.9176 89.947 95.4475 90.1665 96 90.1665ZM106.417 90.1665C106.829 90.1665 107.231 90.0443 107.574 89.8154C107.917 89.5865 108.184 89.2611 108.341 88.8804C108.499 88.4998 108.54 88.0809 108.46 87.6767C108.38 87.2726 108.181 86.9014 107.89 86.61C107.598 86.3187 107.227 86.1203 106.823 86.0399C106.419 85.9595 106 86.0007 105.619 86.1584C105.239 86.3161 104.913 86.5831 104.684 86.9257C104.456 87.2683 104.333 87.6711 104.333 88.0832C104.333 88.6357 104.553 89.1656 104.944 89.5563C105.334 89.947 105.864 90.1665 106.417 90.1665ZM96 98.4998C96.412 98.4998 96.8148 98.3777 97.1574 98.1487C97.5 97.9198 97.7671 97.5944 97.9247 97.2138C98.0824 96.8331 98.1237 96.4142 98.0433 96.0101C97.9629 95.6059 97.7645 95.2347 97.4731 94.9434C97.1818 94.652 96.8106 94.4536 96.4064 94.3732C96.0023 94.2928 95.5834 94.3341 95.2027 94.4918C94.8221 94.6494 94.4967 94.9165 94.2678 95.2591C94.0388 95.6017 93.9167 96.0045 93.9167 96.4165C93.9167 96.969 94.1362 97.4989 94.5269 97.8896C94.9176 98.2803 95.4475 98.4998 96 98.4998ZM106.417 98.4998C106.829 98.4998 107.231 98.3777 107.574 98.1487C107.917 97.9198 108.184 97.5944 108.341 97.2138C108.499 96.8331 108.54 96.4142 108.46 96.0101C108.38 95.6059 108.181 95.2347 107.89 94.9434C107.598 94.652 107.227 94.4536 106.823 94.3732C106.419 94.2928 106 94.3341 105.619 94.4918C105.239 94.6494 104.913 94.9165 104.684 95.2591C104.456 95.6017 104.333 96.0045 104.333 96.4165C104.333 96.969 104.553 97.4989 104.944 97.8896C105.334 98.2803 105.864 98.4998 106.417 98.4998ZM85.5833 90.1665C85.9954 90.1665 86.3982 90.0443 86.7408 89.8154C87.0834 89.5865 87.3504 89.2611 87.5081 88.8804C87.6658 88.4998 87.707 88.0809 87.6266 87.6767C87.5462 87.2726 87.3478 86.9014 87.0565 86.61C86.7651 86.3187 86.3939 86.1203 85.9898 86.0399C85.5856 85.9595 85.1667 86.0007 84.7861 86.1584C84.4054 86.3161 84.08 86.5831 83.8511 86.9257C83.6222 87.2683 83.5 87.6711 83.5 88.0832C83.5 88.6357 83.7195 89.1656 84.1102 89.5563C84.5009 89.947 85.0308 90.1665 85.5833 90.1665ZM110.583 69.3332H108.5V67.2498C108.5 66.6973 108.281 66.1674 107.89 65.7767C107.499 65.386 106.969 65.1665 106.417 65.1665C105.864 65.1665 105.334 65.386 104.944 65.7767C104.553 66.1674 104.333 66.6973 104.333 67.2498V69.3332H87.6667V67.2498C87.6667 66.6973 87.4472 66.1674 87.0565 65.7767C86.6658 65.386 86.1359 65.1665 85.5833 65.1665C85.0308 65.1665 84.5009 65.386 84.1102 65.7767C83.7195 66.1674 83.5 66.6973 83.5 67.2498V69.3332H81.4167C79.7591 69.3332 78.1693 69.9917 76.9972 71.1638C75.8251 72.3359 75.1667 73.9256 75.1667 75.5832V100.583C75.1667 102.241 75.8251 103.83 76.9972 105.003C78.1693 106.175 79.7591 106.833 81.4167 106.833H110.583C112.241 106.833 113.831 106.175 115.003 105.003C116.175 103.83 116.833 102.241 116.833 100.583V75.5832C116.833 73.9256 116.175 72.3359 115.003 71.1638C113.831 69.9917 112.241 69.3332 110.583 69.3332ZM112.667 100.583C112.667 101.136 112.447 101.666 112.056 102.056C111.666 102.447 111.136 102.667 110.583 102.667H81.4167C80.8641 102.667 80.3342 102.447 79.9435 102.056C79.5528 101.666 79.3333 101.136 79.3333 100.583V81.8332H112.667V100.583ZM112.667 77.6665H79.3333V75.5832C79.3333 75.0306 79.5528 74.5007 79.9435 74.11C80.3342 73.7193 80.8641 73.4998 81.4167 73.4998H110.583C111.136 73.4998 111.666 73.7193 112.056 74.11C112.447 74.5007 112.667 75.0306 112.667 75.5832V77.6665ZM85.5833 98.4998C85.9954 98.4998 86.3982 98.3777 86.7408 98.1487C87.0834 97.9198 87.3504 97.5944 87.5081 97.2138C87.6658 96.8331 87.707 96.4142 87.6266 96.0101C87.5462 95.6059 87.3478 95.2347 87.0565 94.9434C86.7651 94.652 86.3939 94.4536 85.9898 94.3732C85.5856 94.2928 85.1667 94.3341 84.7861 94.4918C84.4054 94.6494 84.08 94.9165 83.8511 95.2591C83.6222 95.6017 83.5 96.0045 83.5 96.4165C83.5 96.969 83.7195 97.4989 84.1102 97.8896C84.5009 98.2803 85.0308 98.4998 85.5833 98.4998Z" fill="#0ED789"/>
</svg>
