<svg width="62" height="62" viewBox="0 0 62 62" fill="none" xmlns="http://www.w3.org/2000/svg">
<rect width="62" height="62" rx="31" fill="#D9D9D9"/>
<path d="M17.6667 40.3333V28.3333C17.6667 27.5999 17.928 26.9724 18.4507 26.4506C18.9733 25.9288 19.6009 25.6675 20.3333 25.6666H24.3333V22.9999C24.3333 22.2666 24.5947 21.639 25.1173 21.1173C25.64 20.5955 26.2675 20.3341 27 20.3333H35C35.7333 20.3333 36.3613 20.5946 36.884 21.1173C37.4067 21.6399 37.6675 22.2675 37.6667 22.9999V25.6666H41.6667C42.4 25.6666 43.028 25.9279 43.5507 26.4506C44.0733 26.9733 44.3342 27.6008 44.3333 28.3333V40.3333C44.3333 40.711 44.2053 41.0279 43.9493 41.2839C43.6933 41.5399 43.3769 41.6675 43 41.6666H19C18.6222 41.6666 18.3058 41.5386 18.0507 41.2826C17.7955 41.0266 17.6675 40.7101 17.6667 40.3333ZM25.6667 34.9999C25.6667 35.3777 25.5387 35.6946 25.2827 35.9506C25.0267 36.2066 24.7102 36.3341 24.3333 36.3333C23.9564 36.3324 23.64 36.2044 23.384 35.9493C23.128 35.6941 23 35.3777 23 34.9999H20.3333V38.9999H41.6667V34.9999H39C39 35.3777 38.872 35.6946 38.616 35.9506C38.36 36.2066 38.0435 36.3341 37.6667 36.3333C37.2898 36.3324 36.9733 36.2044 36.7173 35.9493C36.4613 35.6941 36.3333 35.3777 36.3333 34.9999H25.6667ZM20.3333 28.3333V32.3333H23C23 31.9555 23.128 31.639 23.384 31.3839C23.64 31.1288 23.9564 31.0008 24.3333 30.9999C24.7102 30.999 25.0271 31.127 25.284 31.3839C25.5409 31.6408 25.6684 31.9573 25.6667 32.3333H36.3333C36.3333 31.9555 36.4613 31.639 36.7173 31.3839C36.9733 31.1288 37.2898 31.0008 37.6667 30.9999C38.0435 30.999 38.3604 31.127 38.6173 31.3839C38.8742 31.6408 39.0018 31.9573 39 32.3333H41.6667V28.3333H20.3333ZM27 25.6666H35V22.9999H27V25.6666Z" fill="#0ED789"/>
</svg>
