<svg width="62" height="62" viewBox="0 0 62 62" fill="none" xmlns="http://www.w3.org/2000/svg">
<rect width="62" height="62" rx="31" fill="#D9D9D9"/>
<path d="M30.616 33.6666L22.6893 32.7439C22.22 32.6942 21.9191 32.4453 21.7867 31.9973C21.6542 31.5493 21.7622 31.1706 22.1107 30.8613L35.1547 19.1546C35.2142 19.0942 35.2831 19.0493 35.3613 19.0199C35.4396 18.9897 35.5524 18.9746 35.7 18.9746C35.94 18.9746 36.1293 19.0782 36.268 19.2853C36.4067 19.4924 36.408 19.7102 36.272 19.9386L31.308 28.3586L39.2853 29.2813C39.7547 29.3311 40.06 29.5755 40.2013 30.0146C40.3427 30.4537 40.2387 30.8284 39.8893 31.1386L26.8453 42.8719C26.7858 42.9315 26.7169 42.9719 26.6387 42.9933C26.5604 43.0146 26.4476 43.0253 26.3 43.0253C26.06 43.0253 25.8791 42.9222 25.7573 42.7159C25.6356 42.5097 25.6342 42.3004 25.7533 42.0879L30.616 33.6666Z" fill="#0ED789"/>
</svg>
