<svg width="549" height="58" viewBox="0 0 549 58" fill="none" xmlns="http://www.w3.org/2000/svg">
<path fill-rule="evenodd" clip-rule="evenodd" d="M12 3C10.8181 3 9.64778 3.23279 8.55585 3.68508C7.46392 4.13738 6.47177 4.80031 5.63604 5.63604C4.80031 6.47177 4.13738 7.46392 3.68508 8.55585C3.23279 9.64778 3 10.8181 3 12C3 13.1819 3.23279 14.3522 3.68508 15.4442C4.13738 16.5361 4.80031 17.5282 5.63604 18.364C6.47177 19.1997 7.46392 19.8626 8.55585 20.3149C9.64778 20.7672 10.8181 21 12 21C14.3869 21 16.6761 20.0518 18.364 18.364C20.0518 16.6761 21 14.3869 21 12C21 9.61305 20.0518 7.32387 18.364 5.63604C16.6761 3.94821 14.3869 3 12 3ZM1 12C1 5.925 5.925 1 12 1C18.075 1 23 5.925 23 12C23 18.075 18.075 23 12 23C5.925 23 1 18.075 1 12Z" fill="#0ED789"/>
<path fill-rule="evenodd" clip-rule="evenodd" d="M17.608 8.99994L9.882 16.7259L6 12.0929L7.511 10.7829L9.987 13.7929L16.194 7.58594L17.608 8.99994Z" fill="#0ED789"/>
<path d="M45.4091 18V6.36364H46.8182V16.75H52.2273V18H45.4091ZM56.7955 18.2045C56.2424 18.2045 55.7405 18.1004 55.2898 17.892C54.839 17.6799 54.4811 17.375 54.2159 16.9773C53.9508 16.5758 53.8182 16.0909 53.8182 15.5227C53.8182 15.0227 53.9167 14.6174 54.1136 14.3068C54.3106 13.9924 54.5739 13.7462 54.9034 13.5682C55.233 13.3902 55.5966 13.2576 55.9943 13.1705C56.3958 13.0795 56.7992 13.0076 57.2045 12.9545C57.7348 12.8864 58.1648 12.8352 58.4943 12.8011C58.8277 12.7633 59.0701 12.7008 59.2216 12.6136C59.3769 12.5265 59.4545 12.375 59.4545 12.1591V12.1136C59.4545 11.553 59.3011 11.1174 58.9943 10.8068C58.6913 10.4962 58.2311 10.3409 57.6136 10.3409C56.9735 10.3409 56.4716 10.4811 56.108 10.7614C55.7443 11.0417 55.4886 11.3409 55.3409 11.6591L54.0682 11.2045C54.2955 10.6742 54.5985 10.2614 54.9773 9.96591C55.3598 9.66667 55.7765 9.45833 56.2273 9.34091C56.6818 9.2197 57.1288 9.15909 57.5682 9.15909C57.8485 9.15909 58.1705 9.19318 58.5341 9.26136C58.9015 9.32576 59.2557 9.46023 59.5966 9.66477C59.9413 9.86932 60.2273 10.178 60.4545 10.5909C60.6818 11.0038 60.7955 11.5568 60.7955 12.25V18H59.4545V16.8182H59.3864C59.2955 17.0076 59.1439 17.2102 58.9318 17.4261C58.7197 17.642 58.4375 17.8258 58.0852 17.9773C57.733 18.1288 57.303 18.2045 56.7955 18.2045ZM57 17C57.5303 17 57.9773 16.8958 58.3409 16.6875C58.7083 16.4792 58.9848 16.2102 59.1705 15.8807C59.3598 15.5511 59.4545 15.2045 59.4545 14.8409V13.6136C59.3977 13.6818 59.2727 13.7443 59.0795 13.8011C58.8902 13.8542 58.6705 13.9015 58.4205 13.9432C58.1742 13.9811 57.9337 14.0152 57.6989 14.0455C57.4678 14.072 57.2803 14.0947 57.1364 14.1136C56.7879 14.1591 56.4621 14.233 56.1591 14.3352C55.8598 14.4337 55.6174 14.5833 55.4318 14.7841C55.25 14.9811 55.1591 15.25 55.1591 15.5909C55.1591 16.0568 55.3314 16.4091 55.6761 16.6477C56.0246 16.8826 56.4659 17 57 17ZM67.0384 9.27273V10.4091H62.5156V9.27273H67.0384ZM63.8338 7.18182H65.1747V15.5C65.1747 15.8788 65.2296 16.1629 65.3395 16.3523C65.4531 16.5379 65.5971 16.6629 65.7713 16.7273C65.9493 16.7879 66.1368 16.8182 66.3338 16.8182C66.4815 16.8182 66.6027 16.8106 66.6974 16.7955C66.7921 16.7765 66.8679 16.7614 66.9247 16.75L67.1974 17.9545C67.1065 17.9886 66.9796 18.0227 66.8168 18.0568C66.6539 18.0947 66.4474 18.1136 66.1974 18.1136C65.8187 18.1136 65.4474 18.0322 65.0838 17.8693C64.724 17.7064 64.4247 17.4583 64.1861 17.125C63.9512 16.7917 63.8338 16.3712 63.8338 15.8636V7.18182ZM76.1918 9.27273L72.9645 18H71.6009L68.3736 9.27273H69.8281L72.2372 16.2273H72.3281L74.7372 9.27273H76.1918ZM77.9616 18V9.27273H79.3026V18H77.9616ZM78.6435 7.81818C78.3821 7.81818 78.1567 7.72917 77.9673 7.55114C77.7817 7.37311 77.6889 7.15909 77.6889 6.90909C77.6889 6.65909 77.7817 6.44508 77.9673 6.26705C78.1567 6.08902 78.3821 6 78.6435 6C78.9048 6 79.1283 6.08902 79.3139 6.26705C79.5033 6.44508 79.598 6.65909 79.598 6.90909C79.598 7.15909 79.5033 7.37311 79.3139 7.55114C79.1283 7.72917 78.9048 7.81818 78.6435 7.81818ZM84.3267 18.2045C83.7737 18.2045 83.2718 18.1004 82.821 17.892C82.3703 17.6799 82.0123 17.375 81.7472 16.9773C81.482 16.5758 81.3494 16.0909 81.3494 15.5227C81.3494 15.0227 81.4479 14.6174 81.6449 14.3068C81.8419 13.9924 82.1051 13.7462 82.4347 13.5682C82.7642 13.3902 83.1278 13.2576 83.5256 13.1705C83.9271 13.0795 84.3305 13.0076 84.7358 12.9545C85.2661 12.8864 85.696 12.8352 86.0256 12.8011C86.3589 12.7633 86.6013 12.7008 86.7528 12.6136C86.9081 12.5265 86.9858 12.375 86.9858 12.1591V12.1136C86.9858 11.553 86.8324 11.1174 86.5256 10.8068C86.2225 10.4962 85.7623 10.3409 85.1449 10.3409C84.5047 10.3409 84.0028 10.4811 83.6392 10.7614C83.2756 11.0417 83.0199 11.3409 82.8722 11.6591L81.5994 11.2045C81.8267 10.6742 82.1297 10.2614 82.5085 9.96591C82.8911 9.66667 83.3078 9.45833 83.7585 9.34091C84.2131 9.2197 84.66 9.15909 85.0994 9.15909C85.3797 9.15909 85.7017 9.19318 86.0653 9.26136C86.4328 9.32576 86.7869 9.46023 87.1278 9.66477C87.4725 9.86932 87.7585 10.178 87.9858 10.5909C88.2131 11.0038 88.3267 11.5568 88.3267 12.25V18H86.9858V16.8182H86.9176C86.8267 17.0076 86.6752 17.2102 86.4631 17.4261C86.2509 17.642 85.9688 17.8258 85.6165 17.9773C85.2642 18.1288 84.8343 18.2045 84.3267 18.2045ZM84.5312 17C85.0616 17 85.5085 16.8958 85.8722 16.6875C86.2396 16.4792 86.5161 16.2102 86.7017 15.8807C86.8911 15.5511 86.9858 15.2045 86.9858 14.8409V13.6136C86.929 13.6818 86.804 13.7443 86.6108 13.8011C86.4214 13.8542 86.2017 13.9015 85.9517 13.9432C85.7055 13.9811 85.465 14.0152 85.2301 14.0455C84.9991 14.072 84.8116 14.0947 84.6676 14.1136C84.3191 14.1591 83.9934 14.233 83.6903 14.3352C83.3911 14.4337 83.1487 14.5833 82.9631 14.7841C82.7813 14.9811 82.6903 15.25 82.6903 15.5909C82.6903 16.0568 82.8627 16.4091 83.2074 16.6477C83.5559 16.8826 83.9972 17 84.5312 17Z" fill="#808080"/>
<path fill-rule="evenodd" clip-rule="evenodd" d="M291.5 3C290.318 3 289.148 3.23279 288.056 3.68508C286.964 4.13738 285.972 4.80031 285.136 5.63604C284.3 6.47177 283.637 7.46392 283.185 8.55585C282.733 9.64778 282.5 10.8181 282.5 12C282.5 13.1819 282.733 14.3522 283.185 15.4442C283.637 16.5361 284.3 17.5282 285.136 18.364C285.972 19.1997 286.964 19.8626 288.056 20.3149C289.148 20.7672 290.318 21 291.5 21C293.887 21 296.176 20.0518 297.864 18.364C299.552 16.6761 300.5 14.3869 300.5 12C300.5 9.61305 299.552 7.32387 297.864 5.63604C296.176 3.94821 293.887 3 291.5 3ZM280.5 12C280.5 5.925 285.425 1 291.5 1C297.575 1 302.5 5.925 302.5 12C302.5 18.075 297.575 23 291.5 23C285.425 23 280.5 18.075 280.5 12Z" fill="#0ED789"/>
<path fill-rule="evenodd" clip-rule="evenodd" d="M297.108 8.99994L289.382 16.7259L285.5 12.0929L287.011 10.7829L289.487 13.7929L295.694 7.58594L297.108 8.99994Z" fill="#0ED789"/>
<path d="M324.909 18V6.36364H328.977C329.788 6.36364 330.456 6.50379 330.983 6.78409C331.509 7.06061 331.902 7.43371 332.159 7.90341C332.417 8.36932 332.545 8.88636 332.545 9.45455C332.545 9.95455 332.456 10.3674 332.278 10.6932C332.104 11.0189 331.873 11.2765 331.585 11.4659C331.301 11.6553 330.992 11.7955 330.659 11.8864V12C331.015 12.0227 331.373 12.1477 331.733 12.375C332.093 12.6023 332.394 12.928 332.636 13.3523C332.879 13.7765 333 14.2955 333 14.9091C333 15.4924 332.867 16.017 332.602 16.483C332.337 16.9489 331.919 17.3182 331.347 17.5909C330.775 17.8636 330.03 18 329.114 18H324.909ZM326.318 16.75H329.114C330.034 16.75 330.688 16.572 331.074 16.2159C331.464 15.8561 331.659 15.4205 331.659 14.9091C331.659 14.5152 331.559 14.1515 331.358 13.8182C331.157 13.4811 330.871 13.2121 330.5 13.0114C330.129 12.8068 329.689 12.7045 329.182 12.7045H326.318V16.75ZM326.318 11.4773H328.932C329.356 11.4773 329.739 11.3939 330.08 11.2273C330.424 11.0606 330.697 10.8258 330.898 10.5227C331.102 10.2197 331.205 9.86364 331.205 9.45455C331.205 8.94318 331.027 8.50947 330.67 8.15341C330.314 7.79356 329.75 7.61364 328.977 7.61364H326.318V11.4773ZM338.793 18.1818C337.952 18.1818 337.226 17.9962 336.616 17.625C336.01 17.25 335.543 16.7273 335.213 16.0568C334.887 15.3826 334.724 14.5985 334.724 13.7045C334.724 12.8106 334.887 12.0227 335.213 11.3409C335.543 10.6553 336.001 10.1212 336.588 9.73864C337.179 9.35227 337.868 9.15909 338.656 9.15909C339.111 9.15909 339.56 9.23485 340.003 9.38636C340.446 9.53788 340.849 9.78409 341.213 10.125C341.577 10.4621 341.866 10.9091 342.082 11.4659C342.298 12.0227 342.406 12.7083 342.406 13.5227V14.0909H335.679V12.9318H341.043C341.043 12.4394 340.944 12 340.747 11.6136C340.554 11.2273 340.277 10.9223 339.918 10.6989C339.562 10.4754 339.141 10.3636 338.656 10.3636C338.122 10.3636 337.66 10.4962 337.27 10.7614C336.884 11.0227 336.586 11.3636 336.378 11.7841C336.17 12.2045 336.065 12.6553 336.065 13.1364V13.9091C336.065 14.5682 336.179 15.1269 336.406 15.5852C336.637 16.0398 336.957 16.3864 337.366 16.625C337.776 16.8598 338.251 16.9773 338.793 16.9773C339.145 16.9773 339.463 16.928 339.747 16.8295C340.035 16.7273 340.283 16.5758 340.491 16.375C340.7 16.1705 340.861 15.9167 340.974 15.6136L342.27 15.9773C342.134 16.4167 341.904 16.803 341.582 17.1364C341.26 17.4659 340.863 17.7235 340.389 17.9091C339.916 18.0909 339.384 18.1818 338.793 18.1818ZM345.787 6.36364V18H344.446V6.36364H345.787ZM350.811 18.2045C350.258 18.2045 349.756 18.1004 349.305 17.892C348.855 17.6799 348.497 17.375 348.232 16.9773C347.966 16.5758 347.834 16.0909 347.834 15.5227C347.834 15.0227 347.932 14.6174 348.129 14.3068C348.326 13.9924 348.589 13.7462 348.919 13.5682C349.249 13.3902 349.612 13.2576 350.01 13.1705C350.411 13.0795 350.815 13.0076 351.22 12.9545C351.75 12.8864 352.18 12.8352 352.51 12.8011C352.843 12.7633 353.086 12.7008 353.237 12.6136C353.393 12.5265 353.47 12.375 353.47 12.1591V12.1136C353.47 11.553 353.317 11.1174 353.01 10.8068C352.707 10.4962 352.247 10.3409 351.629 10.3409C350.989 10.3409 350.487 10.4811 350.124 10.7614C349.76 11.0417 349.504 11.3409 349.357 11.6591L348.084 11.2045C348.311 10.6742 348.614 10.2614 348.993 9.96591C349.375 9.66667 349.792 9.45833 350.243 9.34091C350.697 9.2197 351.144 9.15909 351.584 9.15909C351.864 9.15909 352.186 9.19318 352.55 9.26136C352.917 9.32576 353.271 9.46023 353.612 9.66477C353.957 9.86932 354.243 10.178 354.47 10.5909C354.697 11.0038 354.811 11.5568 354.811 12.25V18H353.47V16.8182H353.402C353.311 17.0076 353.16 17.2102 352.947 17.4261C352.735 17.642 352.453 17.8258 352.101 17.9773C351.749 18.1288 351.319 18.2045 350.811 18.2045ZM351.016 17C351.546 17 351.993 16.8958 352.357 16.6875C352.724 16.4792 353 16.2102 353.186 15.8807C353.375 15.5511 353.47 15.2045 353.47 14.8409V13.6136C353.413 13.6818 353.288 13.7443 353.095 13.8011C352.906 13.8542 352.686 13.9015 352.436 13.9432C352.19 13.9811 351.949 14.0152 351.714 14.0455C351.483 14.072 351.296 14.0947 351.152 14.1136C350.804 14.1591 350.478 14.233 350.175 14.3352C349.875 14.4337 349.633 14.5833 349.447 14.7841C349.266 14.9811 349.175 15.25 349.175 15.5909C349.175 16.0568 349.347 16.4091 349.692 16.6477C350.04 16.8826 350.482 17 351.016 17ZM357.259 18V9.27273H358.554V10.5909H358.645C358.804 10.1591 359.092 9.80871 359.509 9.53977C359.925 9.27083 360.395 9.13636 360.918 9.13636C361.016 9.13636 361.139 9.13826 361.287 9.14205C361.435 9.14583 361.546 9.15152 361.622 9.15909V10.5227C361.577 10.5114 361.473 10.4943 361.31 10.4716C361.151 10.4451 360.982 10.4318 360.804 10.4318C360.38 10.4318 360.001 10.5208 359.668 10.6989C359.338 10.8731 359.077 11.1155 358.884 11.4261C358.694 11.733 358.599 12.0833 358.599 12.4773V18H357.259ZM368.712 14.4318V9.27273H370.053V18H368.712V16.5227H368.621C368.416 16.9659 368.098 17.3428 367.666 17.6534C367.234 17.9602 366.689 18.1136 366.03 18.1136C365.484 18.1136 365 17.9943 364.575 17.7557C364.151 17.5133 363.818 17.1496 363.575 16.6648C363.333 16.1761 363.212 15.5606 363.212 14.8182V9.27273H364.553V14.7273C364.553 15.3636 364.731 15.8712 365.087 16.25C365.446 16.6288 365.905 16.8182 366.462 16.8182C366.795 16.8182 367.134 16.733 367.479 16.5625C367.827 16.392 368.119 16.1307 368.354 15.7784C368.592 15.4261 368.712 14.9773 368.712 14.4318ZM378.69 11.2273L377.486 11.5682C377.41 11.3674 377.298 11.1723 377.151 10.983C377.007 10.7898 376.81 10.6307 376.56 10.5057C376.31 10.3807 375.99 10.3182 375.599 10.3182C375.065 10.3182 374.62 10.4413 374.264 10.6875C373.912 10.9299 373.736 11.2386 373.736 11.6136C373.736 11.947 373.857 12.2102 374.099 12.4034C374.342 12.5966 374.721 12.7576 375.236 12.8864L376.531 13.2045C377.312 13.3939 377.893 13.6837 378.276 14.0739C378.658 14.4602 378.849 14.9583 378.849 15.5682C378.849 16.0682 378.705 16.5152 378.418 16.9091C378.134 17.303 377.736 17.6136 377.224 17.8409C376.713 18.0682 376.118 18.1818 375.44 18.1818C374.55 18.1818 373.813 17.9886 373.23 17.6023C372.647 17.2159 372.277 16.6515 372.122 15.9091L373.395 15.5909C373.516 16.0606 373.745 16.4129 374.082 16.6477C374.423 16.8826 374.868 17 375.418 17C376.043 17 376.539 16.8674 376.906 16.6023C377.277 16.3333 377.463 16.0114 377.463 15.6364C377.463 15.3333 377.357 15.0795 377.145 14.875C376.933 14.6667 376.607 14.5114 376.168 14.4091L374.713 14.0682C373.914 13.8788 373.327 13.5852 372.952 13.1875C372.58 12.786 372.395 12.2841 372.395 11.6818C372.395 11.1894 372.533 10.7538 372.81 10.375C373.09 9.99621 373.471 9.69886 373.952 9.48295C374.437 9.26705 374.986 9.15909 375.599 9.15909C376.463 9.15909 377.141 9.34848 377.634 9.72727C378.13 10.1061 378.482 10.6061 378.69 11.2273Z" fill="#808080"/>
<path fill-rule="evenodd" clip-rule="evenodd" d="M12 37C10.8181 37 9.64778 37.2328 8.55585 37.6851C7.46392 38.1374 6.47177 38.8003 5.63604 39.636C4.80031 40.4718 4.13738 41.4639 3.68508 42.5558C3.23279 43.6478 3 44.8181 3 46C3 47.1819 3.23279 48.3522 3.68508 49.4442C4.13738 50.5361 4.80031 51.5282 5.63604 52.364C6.47177 53.1997 7.46392 53.8626 8.55585 54.3149C9.64778 54.7672 10.8181 55 12 55C14.3869 55 16.6761 54.0518 18.364 52.364C20.0518 50.6761 21 48.3869 21 46C21 43.6131 20.0518 41.3239 18.364 39.636C16.6761 37.9482 14.3869 37 12 37ZM1 46C1 39.925 5.925 35 12 35C18.075 35 23 39.925 23 46C23 52.075 18.075 57 12 57C5.925 57 1 52.075 1 46Z" fill="#0ED789"/>
<path fill-rule="evenodd" clip-rule="evenodd" d="M17.608 42.9999L9.882 50.7259L6 46.0929L7.511 44.7829L9.987 47.7929L16.194 41.5859L17.608 42.9999Z" fill="#0ED789"/>
<path d="M45.4091 52V40.3636H49.3409C50.2538 40.3636 51 40.5284 51.5795 40.858C52.1629 41.1837 52.5947 41.625 52.875 42.1818C53.1553 42.7386 53.2955 43.3598 53.2955 44.0455C53.2955 44.7311 53.1553 45.3542 52.875 45.9148C52.5985 46.4754 52.1705 46.9223 51.5909 47.2557C51.0114 47.5852 50.2689 47.75 49.3636 47.75H46.5455V46.5H49.3182C49.9432 46.5 50.4451 46.392 50.8239 46.1761C51.2027 45.9602 51.4773 45.6686 51.6477 45.3011C51.822 44.9299 51.9091 44.5114 51.9091 44.0455C51.9091 43.5795 51.822 43.1629 51.6477 42.7955C51.4773 42.428 51.2008 42.1402 50.8182 41.9318C50.4356 41.7197 49.928 41.6136 49.2955 41.6136H46.8182V52H45.4091ZM58.8352 52.1818C58.0473 52.1818 57.3561 51.9943 56.7614 51.6193C56.1705 51.2443 55.7083 50.7197 55.375 50.0455C55.0455 49.3712 54.8807 48.5833 54.8807 47.6818C54.8807 46.7727 55.0455 45.9792 55.375 45.3011C55.7083 44.6231 56.1705 44.0966 56.7614 43.7216C57.3561 43.3466 58.0473 43.1591 58.8352 43.1591C59.6231 43.1591 60.3125 43.3466 60.9034 43.7216C61.4981 44.0966 61.9602 44.6231 62.2898 45.3011C62.6231 45.9792 62.7898 46.7727 62.7898 47.6818C62.7898 48.5833 62.6231 49.3712 62.2898 50.0455C61.9602 50.7197 61.4981 51.2443 60.9034 51.6193C60.3125 51.9943 59.6231 52.1818 58.8352 52.1818ZM58.8352 50.9773C59.4337 50.9773 59.9261 50.8239 60.3125 50.517C60.6989 50.2102 60.9848 49.8068 61.1705 49.3068C61.3561 48.8068 61.4489 48.2652 61.4489 47.6818C61.4489 47.0985 61.3561 46.5549 61.1705 46.0511C60.9848 45.5473 60.6989 45.1402 60.3125 44.8295C59.9261 44.5189 59.4337 44.3636 58.8352 44.3636C58.2367 44.3636 57.7443 44.5189 57.358 44.8295C56.9716 45.1402 56.6856 45.5473 56.5 46.0511C56.3144 46.5549 56.2216 47.0985 56.2216 47.6818C56.2216 48.2652 56.3144 48.8068 56.5 49.3068C56.6856 49.8068 56.9716 50.2102 57.358 50.517C57.7443 50.8239 58.2367 50.9773 58.8352 50.9773ZM66.1776 40.3636V52H64.8366V40.3636H66.1776ZM71.2017 52.2045C70.6487 52.2045 70.1468 52.1004 69.696 51.892C69.2453 51.6799 68.8873 51.375 68.6222 50.9773C68.357 50.5758 68.2244 50.0909 68.2244 49.5227C68.2244 49.0227 68.3229 48.6174 68.5199 48.3068C68.7169 47.9924 68.9801 47.7462 69.3097 47.5682C69.6392 47.3902 70.0028 47.2576 70.4006 47.1705C70.8021 47.0795 71.2055 47.0076 71.6108 46.9545C72.1411 46.8864 72.571 46.8352 72.9006 46.8011C73.2339 46.7633 73.4763 46.7008 73.6278 46.6136C73.7831 46.5265 73.8608 46.375 73.8608 46.1591V46.1136C73.8608 45.553 73.7074 45.1174 73.4006 44.8068C73.0975 44.4962 72.6373 44.3409 72.0199 44.3409C71.3797 44.3409 70.8778 44.4811 70.5142 44.7614C70.1506 45.0417 69.8949 45.3409 69.7472 45.6591L68.4744 45.2045C68.7017 44.6742 69.0047 44.2614 69.3835 43.9659C69.7661 43.6667 70.1828 43.4583 70.6335 43.3409C71.0881 43.2197 71.535 43.1591 71.9744 43.1591C72.2547 43.1591 72.5767 43.1932 72.9403 43.2614C73.3078 43.3258 73.6619 43.4602 74.0028 43.6648C74.3475 43.8693 74.6335 44.178 74.8608 44.5909C75.0881 45.0038 75.2017 45.5568 75.2017 46.25V52H73.8608V50.8182H73.7926C73.7017 51.0076 73.5502 51.2102 73.3381 51.4261C73.1259 51.642 72.8438 51.8258 72.4915 51.9773C72.1392 52.1288 71.7093 52.2045 71.2017 52.2045ZM71.4062 51C71.9366 51 72.3835 50.8958 72.7472 50.6875C73.1146 50.4792 73.3911 50.2102 73.5767 49.8807C73.7661 49.5511 73.8608 49.2045 73.8608 48.8409V47.6136C73.804 47.6818 73.679 47.7443 73.4858 47.8011C73.2964 47.8542 73.0767 47.9015 72.8267 47.9432C72.5805 47.9811 72.34 48.0152 72.1051 48.0455C71.8741 48.072 71.6866 48.0947 71.5426 48.1136C71.1941 48.1591 70.8684 48.233 70.5653 48.3352C70.2661 48.4337 70.0237 48.5833 69.8381 48.7841C69.6563 48.9811 69.5653 49.25 69.5653 49.5909C69.5653 50.0568 69.7377 50.4091 70.0824 50.6477C70.4309 50.8826 70.8722 51 71.4062 51ZM78.9901 46.75V52H77.6491V43.2727H78.9446V44.6364H79.0582C79.2628 44.1932 79.5734 43.8371 79.9901 43.5682C80.4067 43.2955 80.9446 43.1591 81.6037 43.1591C82.1946 43.1591 82.7116 43.2803 83.1548 43.5227C83.598 43.7614 83.9427 44.125 84.1889 44.6136C84.4351 45.0985 84.5582 45.7121 84.5582 46.4545V52H83.2173V46.5455C83.2173 45.8598 83.0393 45.3258 82.6832 44.9432C82.3272 44.5568 81.8385 44.3636 81.2173 44.3636C80.7893 44.3636 80.4067 44.4564 80.0696 44.642C79.7363 44.8277 79.473 45.0985 79.2798 45.4545C79.0866 45.8106 78.9901 46.2424 78.9901 46.75ZM90.304 52.1818C89.5767 52.1818 88.9347 51.9981 88.3778 51.6307C87.821 51.2595 87.3854 50.7367 87.071 50.0625C86.7566 49.3845 86.5994 48.5833 86.5994 47.6591C86.5994 46.7424 86.7566 45.947 87.071 45.2727C87.3854 44.5985 87.8229 44.0777 88.3835 43.7102C88.9441 43.3428 89.5919 43.1591 90.3267 43.1591C90.8949 43.1591 91.3438 43.2538 91.6733 43.4432C92.0066 43.6288 92.2604 43.8409 92.4347 44.0795C92.6127 44.3144 92.7509 44.5076 92.8494 44.6591H92.9631V40.3636H94.304V52H93.0085V50.6591H92.8494C92.7509 50.8182 92.6108 51.0189 92.429 51.2614C92.2472 51.5 91.9877 51.714 91.6506 51.9034C91.3134 52.089 90.8646 52.1818 90.304 52.1818ZM90.4858 50.9773C91.0237 50.9773 91.4782 50.8371 91.8494 50.5568C92.2206 50.2727 92.5028 49.8807 92.696 49.3807C92.8892 48.8769 92.9858 48.2955 92.9858 47.6364C92.9858 46.9848 92.8911 46.4148 92.7017 45.9261C92.5123 45.4337 92.232 45.0511 91.8608 44.7784C91.4896 44.5019 91.0313 44.3636 90.4858 44.3636C89.9176 44.3636 89.4441 44.5095 89.0653 44.8011C88.6903 45.089 88.4081 45.4811 88.2188 45.9773C88.0331 46.4697 87.9403 47.0227 87.9403 47.6364C87.9403 48.2576 88.035 48.822 88.2244 49.3295C88.4176 49.8333 88.7017 50.2348 89.0767 50.5341C89.4555 50.8295 89.9252 50.9773 90.4858 50.9773Z" fill="#808080"/>
<path fill-rule="evenodd" clip-rule="evenodd" d="M291.5 37C290.318 37 289.148 37.2328 288.056 37.6851C286.964 38.1374 285.972 38.8003 285.136 39.636C284.3 40.4718 283.637 41.4639 283.185 42.5558C282.733 43.6478 282.5 44.8181 282.5 46C282.5 47.1819 282.733 48.3522 283.185 49.4442C283.637 50.5361 284.3 51.5282 285.136 52.364C285.972 53.1997 286.964 53.8626 288.056 54.3149C289.148 54.7672 290.318 55 291.5 55C293.887 55 296.176 54.0518 297.864 52.364C299.552 50.6761 300.5 48.3869 300.5 46C300.5 43.6131 299.552 41.3239 297.864 39.636C296.176 37.9482 293.887 37 291.5 37ZM280.5 46C280.5 39.925 285.425 35 291.5 35C297.575 35 302.5 39.925 302.5 46C302.5 52.075 297.575 57 291.5 57C285.425 57 280.5 52.075 280.5 46Z" fill="#0ED789"/>
<path fill-rule="evenodd" clip-rule="evenodd" d="M297.108 42.9999L289.382 50.7259L285.5 46.0929L287.011 44.7829L289.487 47.7929L295.694 41.5859L297.108 42.9999Z" fill="#0ED789"/>
<path d="M324.909 52V40.3636H331.932V41.6136H326.318V45.5455H331.568V46.7955H326.318V50.75H332.023V52H324.909ZM340.472 45.2273L339.267 45.5682C339.191 45.3674 339.08 45.1723 338.932 44.983C338.788 44.7898 338.591 44.6307 338.341 44.5057C338.091 44.3807 337.771 44.3182 337.381 44.3182C336.847 44.3182 336.402 44.4413 336.045 44.6875C335.693 44.9299 335.517 45.2386 335.517 45.6136C335.517 45.947 335.638 46.2102 335.881 46.4034C336.123 46.5966 336.502 46.7576 337.017 46.8864L338.312 47.2045C339.093 47.3939 339.674 47.6837 340.057 48.0739C340.439 48.4602 340.631 48.9583 340.631 49.5682C340.631 50.0682 340.487 50.5152 340.199 50.9091C339.915 51.303 339.517 51.6136 339.006 51.8409C338.494 52.0682 337.9 52.1818 337.222 52.1818C336.331 52.1818 335.595 51.9886 335.011 51.6023C334.428 51.2159 334.059 50.6515 333.903 49.9091L335.176 49.5909C335.297 50.0606 335.527 50.4129 335.864 50.6477C336.205 50.8826 336.65 51 337.199 51C337.824 51 338.32 50.8674 338.688 50.6023C339.059 50.3333 339.244 50.0114 339.244 49.6364C339.244 49.3333 339.138 49.0795 338.926 48.875C338.714 48.6667 338.388 48.5114 337.949 48.4091L336.494 48.0682C335.695 47.8788 335.108 47.5852 334.733 47.1875C334.362 46.786 334.176 46.2841 334.176 45.6818C334.176 45.1894 334.314 44.7538 334.591 44.375C334.871 43.9962 335.252 43.6989 335.733 43.483C336.218 43.267 336.767 43.1591 337.381 43.1591C338.244 43.1591 338.922 43.3485 339.415 43.7273C339.911 44.1061 340.263 44.6061 340.472 45.2273ZM346.445 43.2727V44.4091H341.922V43.2727H346.445ZM343.24 41.1818H344.581V49.5C344.581 49.8788 344.636 50.1629 344.746 50.3523C344.859 50.5379 345.003 50.6629 345.178 50.7273C345.356 50.7879 345.543 50.8182 345.74 50.8182C345.888 50.8182 346.009 50.8106 346.104 50.7955C346.198 50.7765 346.274 50.7614 346.331 50.75L346.604 51.9545C346.513 51.9886 346.386 52.0227 346.223 52.0568C346.06 52.0947 345.854 52.1136 345.604 52.1136C345.225 52.1136 344.854 52.0322 344.49 51.8693C344.13 51.7064 343.831 51.4583 343.592 51.125C343.357 50.7917 343.24 50.3712 343.24 49.8636V41.1818ZM351.913 52.1818C351.125 52.1818 350.434 51.9943 349.839 51.6193C349.249 51.2443 348.786 50.7197 348.453 50.0455C348.124 49.3712 347.959 48.5833 347.959 47.6818C347.959 46.7727 348.124 45.9792 348.453 45.3011C348.786 44.6231 349.249 44.0966 349.839 43.7216C350.434 43.3466 351.125 43.1591 351.913 43.1591C352.701 43.1591 353.391 43.3466 353.982 43.7216C354.576 44.0966 355.038 44.6231 355.368 45.3011C355.701 45.9792 355.868 46.7727 355.868 47.6818C355.868 48.5833 355.701 49.3712 355.368 50.0455C355.038 50.7197 354.576 51.2443 353.982 51.6193C353.391 51.9943 352.701 52.1818 351.913 52.1818ZM351.913 50.9773C352.512 50.9773 353.004 50.8239 353.391 50.517C353.777 50.2102 354.063 49.8068 354.249 49.3068C354.434 48.8068 354.527 48.2652 354.527 47.6818C354.527 47.0985 354.434 46.5549 354.249 46.0511C354.063 45.5473 353.777 45.1402 353.391 44.8295C353.004 44.5189 352.512 44.3636 351.913 44.3636C351.315 44.3636 350.822 44.5189 350.436 44.8295C350.05 45.1402 349.764 45.5473 349.578 46.0511C349.393 46.5549 349.3 47.0985 349.3 47.6818C349.3 48.2652 349.393 48.8068 349.578 49.3068C349.764 49.8068 350.05 50.2102 350.436 50.517C350.822 50.8239 351.315 50.9773 351.913 50.9773ZM359.256 46.75V52H357.915V43.2727H359.21V44.6364H359.324C359.528 44.1932 359.839 43.8371 360.256 43.5682C360.672 43.2955 361.21 43.1591 361.869 43.1591C362.46 43.1591 362.977 43.2803 363.42 43.5227C363.864 43.7614 364.208 44.125 364.455 44.6136C364.701 45.0985 364.824 45.7121 364.824 46.4545V52H363.483V46.5455C363.483 45.8598 363.305 45.3258 362.949 44.9432C362.593 44.5568 362.104 44.3636 361.483 44.3636C361.055 44.3636 360.672 44.4564 360.335 44.642C360.002 44.8277 359.739 45.0985 359.545 45.4545C359.352 45.8106 359.256 46.2424 359.256 46.75ZM367.274 52V43.2727H368.615V52H367.274ZM367.956 41.8182C367.695 41.8182 367.469 41.7292 367.28 41.5511C367.094 41.3731 367.001 41.1591 367.001 40.9091C367.001 40.6591 367.094 40.4451 367.28 40.267C367.469 40.089 367.695 40 367.956 40C368.217 40 368.441 40.089 368.626 40.267C368.816 40.4451 368.911 40.6591 368.911 40.9091C368.911 41.1591 368.816 41.3731 368.626 41.5511C368.441 41.7292 368.217 41.8182 367.956 41.8182ZM373.639 52.2045C373.086 52.2045 372.584 52.1004 372.134 51.892C371.683 51.6799 371.325 51.375 371.06 50.9773C370.795 50.5758 370.662 50.0909 370.662 49.5227C370.662 49.0227 370.76 48.6174 370.957 48.3068C371.154 47.9924 371.418 47.7462 371.747 47.5682C372.077 47.3902 372.44 47.2576 372.838 47.1705C373.24 47.0795 373.643 47.0076 374.048 46.9545C374.579 46.8864 375.009 46.8352 375.338 46.8011C375.671 46.7633 375.914 46.7008 376.065 46.6136C376.221 46.5265 376.298 46.375 376.298 46.1591V46.1136C376.298 45.553 376.145 45.1174 375.838 44.8068C375.535 44.4962 375.075 44.3409 374.457 44.3409C373.817 44.3409 373.315 44.4811 372.952 44.7614C372.588 45.0417 372.332 45.3409 372.185 45.6591L370.912 45.2045C371.139 44.6742 371.442 44.2614 371.821 43.9659C372.204 43.6667 372.62 43.4583 373.071 43.3409C373.526 43.2197 373.973 43.1591 374.412 43.1591C374.692 43.1591 375.014 43.1932 375.378 43.2614C375.745 43.3258 376.099 43.4602 376.44 43.6648C376.785 43.8693 377.071 44.178 377.298 44.5909C377.526 45.0038 377.639 45.5568 377.639 46.25V52H376.298V50.8182H376.23C376.139 51.0076 375.988 51.2102 375.776 51.4261C375.563 51.642 375.281 51.8258 374.929 51.9773C374.577 52.1288 374.147 52.2045 373.639 52.2045ZM373.844 51C374.374 51 374.821 50.8958 375.185 50.6875C375.552 50.4792 375.829 50.2102 376.014 49.8807C376.204 49.5511 376.298 49.2045 376.298 48.8409V47.6136C376.241 47.6818 376.116 47.7443 375.923 47.8011C375.734 47.8542 375.514 47.9015 375.264 47.9432C375.018 47.9811 374.777 48.0152 374.543 48.0455C374.312 48.072 374.124 48.0947 373.98 48.1136C373.632 48.1591 373.306 48.233 373.003 48.3352C372.704 48.4337 372.461 48.5833 372.276 48.7841C372.094 48.9811 372.003 49.25 372.003 49.5909C372.003 50.0568 372.175 50.4091 372.52 50.6477C372.868 50.8826 373.31 51 373.844 51Z" fill="#808080"/>
</svg>
