<svg width="62" height="62" viewBox="0 0 62 62" fill="none" xmlns="http://www.w3.org/2000/svg">
<rect width="62" height="62" rx="31" fill="#D9D9D9"/>
<path d="M31 28.5854V33.6667M31 17.6667V21.6667M40.3334 32.3334V24.3334C40.3334 23.6262 40.0524 22.9479 39.5523 22.4478C39.0522 21.9477 38.3739 21.6667 37.6667 21.6667H24.3334C23.6261 21.6667 22.9478 21.9477 22.4477 22.4478C21.9476 22.9479 21.6667 23.6262 21.6667 24.3334V32.3334" stroke="#0ED789" stroke-width="2" stroke-linecap="round" stroke-linejoin="round"/>
<path d="M40.84 41.6666C42.2743 39.2461 43.0211 36.4801 43 33.6666L32.0827 28.8146C31.7418 28.6632 31.373 28.585 31 28.585C30.6271 28.585 30.2582 28.6632 29.9174 28.8146L19 33.6666C18.9383 37.4582 20.2717 41.1403 22.7467 44.0133" stroke="#0ED789" stroke-width="2" stroke-linecap="round" stroke-linejoin="round"/>
<path d="M17.6667 43.0001C18.4667 43.6667 19.2667 44.3334 21 44.3334C24.3334 44.3334 24.3334 41.6667 27.6667 41.6667C29.4 41.6667 30.2 42.3334 31 43.0001C31.8 43.6667 32.6 44.3334 34.3334 44.3334C37.6667 44.3334 37.6667 41.6667 41 41.6667C42.7334 41.6667 43.5334 42.3334 44.3334 43.0001" stroke="#0ED789" stroke-width="2" stroke-linecap="round" stroke-linejoin="round"/>
</svg>
