<svg width="62" height="62" viewBox="0 0 62 62" fill="none" xmlns="http://www.w3.org/2000/svg">
<rect width="62" height="62" rx="31" fill="#D9D9D9"/>
<path d="M44.655 41.6513C42.015 40.375 40.5 37.58 40.5 34V31.8413C40.5011 31.3403 40.3511 30.8506 40.0697 30.4361C39.7883 30.0216 39.3885 29.7015 38.9225 29.5175L35.815 28.2913C35.693 28.2428 35.5949 28.1482 35.5421 28.0279C35.4892 27.9077 35.4858 27.7715 35.5325 27.6488L38.1987 21.0238C38.4035 20.5273 38.5062 19.9948 38.5007 19.4578C38.4952 18.9208 38.3816 18.3904 38.1667 17.8983C37.9518 17.4061 37.6401 16.9623 37.25 16.5932C36.8599 16.2241 36.3995 15.9374 35.8962 15.75C34.9153 15.389 33.8322 15.4247 32.8771 15.8495C31.922 16.2743 31.1701 17.0548 30.7812 18.025L30.7725 18.0475L28.1475 24.6838C28.1236 24.7452 28.0876 24.8012 28.0416 24.8484C27.9957 24.8956 27.9407 24.9332 27.88 24.9588C27.8211 24.9847 27.7576 24.9988 27.6932 25C27.6289 25.0013 27.5649 24.9899 27.505 24.9663L24.325 23.6788C23.8668 23.4931 23.3636 23.4483 22.8797 23.5501C22.3959 23.6518 21.9534 23.8955 21.6087 24.25C18.8825 27.0538 17.5 30.335 17.5 34C17.4931 37.7426 18.9403 41.3416 21.5362 44.0375C21.6769 44.1844 21.8459 44.3011 22.0331 44.3806C22.2203 44.4602 22.4216 44.5008 22.625 44.5H44C44.3392 44.4997 44.6682 44.3845 44.9334 44.1731C45.1987 43.9617 45.3844 43.6667 45.4604 43.3362C45.5364 43.0056 45.4982 42.6591 45.3519 42.3531C45.2056 42.0471 44.96 41.7997 44.655 41.6513ZM23.5237 26.5913L26.3825 27.75C26.8103 27.9213 27.2676 28.0063 27.7284 28.0004C28.1891 27.9944 28.6441 27.8976 29.0673 27.7154C29.4905 27.5331 29.8735 27.2692 30.1945 26.9385C30.5154 26.6079 30.7679 26.2172 30.9375 25.7888L33.5562 19.1638C33.6546 18.9181 33.8429 18.7191 34.0828 18.6074C34.3227 18.4957 34.5962 18.4797 34.8475 18.5625C34.9737 18.6093 35.0892 18.681 35.187 18.7735C35.2848 18.8659 35.363 18.9772 35.4168 19.1005C35.4706 19.2239 35.499 19.3569 35.5002 19.4914C35.5014 19.626 35.4754 19.7595 35.4237 19.8838C35.4235 19.8884 35.4235 19.893 35.4237 19.8975L32.75 26.5363C32.4101 27.3986 32.4255 28.3604 32.7928 29.2114C33.1601 30.0624 33.8494 30.7334 34.71 31.0775L37.5 32.1813V34C37.5 34.125 37.5 34.2588 37.5062 34.3875L22.2012 28.2625C22.5947 27.6695 23.037 27.1105 23.5237 26.5913ZM29.5925 41.5C28.2462 40.1562 27.2915 38.4708 26.8312 36.625C26.7318 36.2396 26.4833 35.9095 26.1405 35.7074C25.7976 35.5052 25.3885 35.4475 25.0031 35.5469C24.6177 35.6464 24.2876 35.8948 24.0854 36.2377C23.8833 36.5805 23.8255 36.9896 23.925 37.375C24.2985 38.84 24.9104 40.2336 25.7362 41.5H23.2812C21.482 39.4161 20.4945 36.7532 20.5 34C20.4949 32.9801 20.6385 31.9648 20.9262 30.9863L38.01 37.8188C38.377 39.1509 38.9956 40.4005 39.8325 41.5H29.5925Z" fill="#0ED789"/>
</svg>
