<svg width="62" height="62" viewBox="0 0 62 62" fill="none" xmlns="http://www.w3.org/2000/svg">
<rect width="62" height="62" rx="31" fill="#D9D9D9"/>
<path d="M34.6 23.4001C34.3557 23.6494 34.2188 23.9845 34.2188 24.3335C34.2188 24.6825 34.3557 25.0175 34.6 25.2668L36.7333 27.4001C36.9825 27.6444 37.3176 27.7813 37.6666 27.7813C38.0156 27.7813 38.3507 27.6444 38.6 27.4001L42.7413 23.2601C43.168 22.8308 43.892 22.9668 44.052 23.5508C44.4548 25.016 44.4321 26.5655 43.9863 28.0182C43.5406 29.4709 42.6904 30.7667 41.5352 31.7538C40.3799 32.7409 38.9674 33.3786 37.463 33.5922C35.9585 33.8058 34.4244 33.5866 33.04 32.9601L22.4933 43.5068C21.9629 44.037 21.2435 44.3349 20.4935 44.3347C19.7435 44.3346 19.0242 44.0366 18.494 43.5061C17.9637 42.9757 17.6659 42.2563 17.666 41.5063C17.6661 40.7563 17.9642 40.037 18.4946 39.5068L29.0413 28.9601C28.4148 27.5757 28.1956 26.0416 28.4092 24.5371C28.6229 23.0327 29.2605 21.6202 30.2477 20.4649C31.2348 19.3097 32.5305 18.4595 33.9832 18.0138C35.4359 17.568 36.9855 17.5453 38.4506 17.9481C39.0346 18.1081 39.1706 18.8308 38.7426 19.2601L34.6 23.4001Z" stroke="#0ED789" stroke-width="2" stroke-linecap="round" stroke-linejoin="round"/>
</svg>
