<svg width="24" height="23" viewBox="0 0 24 23" fill="none" xmlns="http://www.w3.org/2000/svg">
<path d="M6.0006 0.309798C7.51883 1.33084 8.66803 2.7654 9.64653 4.08356L10.4135 5.12345C10.6516 5.44446 10.7606 5.83217 10.7215 6.21946C10.6824 6.60675 10.4978 6.96926 10.1995 7.24424L8.56946 8.74754L8.74136 9.08456C9.16209 9.87058 9.88815 11.0025 10.9808 12.0113C11.7366 12.6954 12.587 13.2844 13.51 13.763L13.9512 13.9814L14.3443 14.161L14.5198 14.2352L16.1486 12.7319C16.4477 12.4558 16.8426 12.2856 17.2641 12.2509C17.6856 12.2162 18.1069 12.3194 18.4542 12.5424L19.6731 13.3217C21.058 14.2197 22.5041 15.243 23.628 16.5711C23.8223 16.8016 23.9459 17.076 23.9859 17.3656C24.0258 17.6552 23.9807 17.9494 23.8552 18.2174C22.8491 20.3826 20.303 22.2262 17.6548 22.1353L17.2942 22.1175L17.0141 22.0954L16.704 22.0621L16.3662 22.02L15.9996 21.9635L15.6077 21.8925L15.1918 21.8071L14.7518 21.7029L14.289 21.581L13.8058 21.4369C11.5867 20.7429 8.77021 19.3792 5.88039 16.7141C2.99057 14.049 1.5132 11.4526 0.760695 9.40606L0.604423 8.96039L0.472193 8.53358L0.359197 8.12782L0.265434 7.74423C0.238384 7.62409 0.213138 7.50361 0.189703 7.38282L0.129599 7.04469L0.0815149 6.73317L0.0466545 6.44714L0.0226126 6.18883L0.00337929 5.85625C-0.0939898 3.42171 1.92672 1.05701 4.26358 0.133527C4.54484 0.0215195 4.85284 -0.0211253 5.15737 0.00977762C5.46189 0.0406805 5.75247 0.144069 6.0006 0.309798ZM4.88626 2.31419C3.59762 2.93502 2.34986 4.35406 2.40635 5.77421L2.4304 6.13784L2.45684 6.36511L2.4917 6.62009L2.53978 6.90057L2.60109 7.20766L2.67923 7.53803L2.77539 7.89279L2.89079 8.26861L3.02783 8.6655C3.07832 8.80075 3.13201 8.93933 3.18891 9.08124L3.37403 9.51582L3.5856 9.96703C4.34051 11.4991 5.57145 13.2929 7.58254 15.1465C9.59244 17.0001 11.5374 18.1365 13.1987 18.8327L13.6879 19.0278L14.1592 19.1985C14.313 19.2518 14.4633 19.3013 14.61 19.3471L15.0403 19.4735L15.449 19.5799L15.8325 19.6686L16.1907 19.7407L16.5237 19.7972L16.829 19.8415L17.1055 19.8748L17.3507 19.897L17.745 19.9191C19.2644 19.9713 20.8151 18.8272 21.4859 17.6542C20.63 16.7285 19.5674 15.9691 18.3953 15.2042L17.4962 14.6266L17.2678 14.8472L16.7797 15.3383L16.5213 15.5889C15.8168 16.2507 14.9946 16.8128 14.0089 16.4458L13.7372 16.3405L13.4055 16.203L13.2203 16.1221L12.814 15.9348L12.3681 15.713C11.2405 15.1323 10.2027 14.4145 9.2823 13.5789C8.3763 12.7301 7.59801 11.773 6.96828 10.7331L6.72786 10.3229L6.5235 9.94707L6.2879 9.47036L6.17249 9.2176C5.79865 8.36506 6.31314 7.64557 6.97068 7.02252L7.23995 6.77862L7.90951 6.2099L8.14993 5.99926L7.58134 5.23098C6.73627 4.10019 5.91044 3.08025 4.88506 2.31308L4.88626 2.31419ZM15.7808 4.2953L15.9202 4.30972C16.7952 4.45206 17.5989 4.84623 18.2161 5.43572C18.8333 6.02522 19.2322 6.77977 19.3558 7.59124C19.3999 7.87192 19.3256 8.15751 19.1483 8.38924C18.971 8.62097 18.7042 8.78122 18.4027 8.83703C18.1012 8.89284 17.7879 8.83996 17.5274 8.68928C17.2669 8.53859 17.0789 8.30156 17.0021 8.02693L16.9745 7.89944C16.9261 7.58138 16.7789 7.28304 16.5506 7.04046C16.3224 6.79789 16.0229 6.62147 15.6882 6.53251L15.5019 6.49371C15.2001 6.44437 14.93 6.29053 14.7471 6.06368C14.5642 5.83682 14.4821 5.55407 14.5177 5.27327C14.5534 4.99247 14.704 4.73483 14.9387 4.55304C15.1735 4.37125 15.4747 4.27905 15.7808 4.2953ZM15.7892 0.925085C17.7021 0.925085 19.5366 1.62589 20.8892 2.87334C22.2418 4.12078 23.0017 5.81268 23.0017 7.57683C23.0014 7.8594 22.8841 8.13118 22.6737 8.33665C22.4634 8.54212 22.1759 8.66576 21.8701 8.68232C21.5642 8.69888 21.2631 8.60711 21.0281 8.42575C20.7931 8.24438 20.6422 7.98713 20.606 7.70654L20.5976 7.57683C20.5974 6.45109 20.1331 5.36753 19.2986 4.54589C18.4642 3.72425 17.3222 3.22605 16.1041 3.15231L15.7892 3.14233C15.4704 3.14233 15.1646 3.02553 14.9392 2.81763C14.7138 2.60972 14.5871 2.32773 14.5871 2.03371C14.5871 1.73968 14.7138 1.4577 14.9392 1.24979C15.1646 1.04189 15.4704 0.925085 15.7892 0.925085Z" fill="#0ED789"/>
</svg>
