<svg width="15" height="15" viewBox="0 0 15 15" fill="none" xmlns="http://www.w3.org/2000/svg">
<path d="M11.9392 8.865C11.7449 9.05325 11.6557 9.3255 11.6999 9.5925L12.3667 13.2825C12.4229 13.5952 12.2909 13.9118 12.0292 14.0925C11.7727 14.28 11.4314 14.3025 11.1517 14.1525L7.82991 12.42C7.71441 12.3585 7.58616 12.3255 7.45491 12.3218H7.25166C7.18116 12.3323 7.11216 12.3547 7.04916 12.3892L3.72666 14.13C3.56241 14.2125 3.37641 14.2418 3.19416 14.2125C2.75016 14.1285 2.45391 13.7055 2.52666 13.2593L3.19416 9.56925C3.23841 9.3 3.14916 9.02625 2.95491 8.835L0.246657 6.21C0.0201569 5.99025 -0.0585931 5.66025 0.0449069 5.3625C0.145407 5.0655 0.401907 4.84875 0.711657 4.8L4.43916 4.25925C4.72266 4.23 4.97166 4.0575 5.09916 3.8025L6.74166 0.435C6.78066 0.36 6.83091 0.291 6.89166 0.2325L6.95916 0.18C6.99441 0.141 7.03491 0.10875 7.07991 0.0825L7.16166 0.0525L7.28916 0H7.60491C7.88691 0.02925 8.13516 0.198 8.26491 0.45L9.92916 3.8025C10.0492 4.04775 10.2824 4.218 10.5517 4.25925L14.2792 4.8C14.5942 4.845 14.8574 5.0625 14.9617 5.3625C15.0599 5.66325 14.9752 5.99325 14.7442 6.21L11.9392 8.865Z" fill="#FDCE3F"/>
</svg>
