<svg width="46" height="46" viewBox="0 0 46 46" fill="none" xmlns="http://www.w3.org/2000/svg">
<path fill-rule="evenodd" clip-rule="evenodd" d="M22.8313 45.8333C35.4875 45.8333 45.7479 35.5729 45.7479 22.9167C45.7479 10.2604 35.4875 0 22.8313 0C10.8479 0 1.0125 9.19792 0 20.9208L12.3333 26.1167C13.5003 25.3466 14.8776 24.9578 16.275 25.0042L21.2938 17.8521C21.1596 16.0678 21.5693 14.2847 22.4687 12.7378C23.3681 11.191 24.7151 9.95291 26.3322 9.18682C27.9492 8.42073 29.7605 8.16255 31.5272 8.44632C33.2939 8.73009 34.9331 9.54248 36.2289 10.7764C37.5248 12.0104 38.4163 13.608 38.7861 15.3587C39.1558 17.1094 38.9865 18.9311 38.3003 20.5837C37.6142 22.2362 36.4434 23.6421 34.9424 24.6161C33.4413 25.59 31.6804 26.0863 29.8917 26.0396L22.7958 31.0687C22.9879 32.8329 22.4797 34.6019 21.3806 35.9951C20.2816 37.3883 18.6794 38.2944 16.9191 38.5183C15.1587 38.7422 13.3808 38.266 11.968 37.1923C10.5551 36.1186 9.62025 34.5331 9.36458 32.7771L0.775 29.1583C3.49375 38.7833 12.3375 45.8333 22.8313 45.8333ZM16.0604 36.7271C15.0806 36.7271 14.1227 36.4368 13.3077 35.8929C12.4927 35.3489 11.8571 34.5757 11.4813 33.6708L14.3146 34.8625C15.1987 35.2032 16.1807 35.1863 17.0525 34.8155C17.9244 34.4446 18.6177 33.7489 18.9854 32.8758C19.3532 32.0026 19.3667 31.0206 19.0229 30.1377C18.6791 29.2548 18.0051 28.5404 17.1438 28.1458L14.5479 27.0521C15.2293 26.8342 15.9497 26.7665 16.6597 26.8534C17.3697 26.9404 18.0525 27.18 18.6611 27.5558C19.2698 27.9316 19.7899 28.4347 20.1857 29.0305C20.5815 29.6264 20.8436 30.3008 20.9541 31.0076C21.0645 31.7143 21.0207 32.4366 20.8256 33.1248C20.6305 33.813 20.2887 34.4508 19.8238 34.9944C19.3588 35.538 18.7817 35.9745 18.1321 36.274C17.4825 36.5734 16.7757 36.7266 16.0604 36.7271ZM30.4438 13.5458C29.4768 13.5458 28.5495 13.9299 27.8658 14.6137C27.182 15.2974 26.7979 16.2247 26.7979 17.1917C26.7979 18.1586 27.182 19.0859 27.8658 19.7697C28.5495 20.4534 29.4768 20.8375 30.4438 20.8375C31.4107 20.8375 32.338 20.4534 33.0217 19.7697C33.7055 19.0859 34.0896 18.1586 34.0896 17.1917C34.0896 16.2247 33.7055 15.2974 33.0217 14.6137C32.338 13.9299 31.4107 13.5458 30.4438 13.5458ZM24.7146 17.1917C24.7146 15.6722 25.3182 14.215 26.3926 13.1405C27.467 12.0661 28.9243 11.4625 30.4438 11.4625C31.9632 11.4625 33.4205 12.0661 34.4949 13.1405C35.5693 14.215 36.1729 15.6722 36.1729 17.1917C36.1729 18.7111 35.5693 20.1684 34.4949 21.2428C33.4205 22.3172 31.9632 22.9208 30.4438 22.9208C28.9243 22.9208 27.467 22.3172 26.3926 21.2428C25.3182 20.1684 24.7146 18.7111 24.7146 17.1917Z" fill="white"/>
</svg>
